<svg width="31" height="30" viewBox="0 0 31 30" fill="none" xmlns="http://www.w3.org/2000/svg">
<path fill-rule="evenodd" clip-rule="evenodd" d="M8.94089 0C11.4644 0 13.7438 1.04548 15.3695 2.72694C16.9951 1.04548 19.2745 0 21.798 0C26.7359 0 30.7389 4.00297 30.7389 8.94089C30.7389 11.2787 29.8417 13.4069 28.3728 15C29.8417 16.5931 30.7389 18.7213 30.7389 21.0591C30.7389 25.997 26.7359 30 21.798 30C19.2745 30 16.9951 28.9545 15.3695 27.2731C13.7438 28.9545 11.4644 30 8.94089 30C4.00297 30 0 25.997 0 21.0591C0 18.7213 0.897234 16.5931 2.36613 15C0.897234 13.4069 0 11.2787 0 8.94089C0 4.00297 4.00297 0 8.94089 0Z" fill="#DADADA" fill-opacity="0.6"/>
</svg>
