<svg width="40" height="40" viewBox="0 0 40 40" fill="none" xmlns="http://www.w3.org/2000/svg">
<path fill-rule="evenodd" clip-rule="evenodd" d="M11.6346 0C14.9184 0 17.8845 1.39399 20 3.63595C22.1154 1.39399 25.0815 0 28.3654 0C34.791 0 40 5.3373 40 11.9212C40 15.0382 38.8324 17.8759 36.921 20C38.8324 22.1241 40 24.9618 40 28.0788C40 34.6627 34.791 40 28.3654 40C25.0815 40 22.1154 38.606 20 36.3641C17.8845 38.606 14.9184 40 11.6346 40C5.20899 40 0 34.6627 0 28.0788C0 24.9618 1.16755 22.1241 3.079 20C1.16755 17.8759 0 15.0382 0 11.9212C0 5.3373 5.20899 0 11.6346 0Z" fill="#7B926C"/>
</svg>
