<svg width="47" height="45" viewBox="0 0 47 45" fill="none" xmlns="http://www.w3.org/2000/svg">
<path fill-rule="evenodd" clip-rule="evenodd" d="M13.4113 0C17.1967 0 20.6157 1.56824 23.0542 4.09046C25.4927 1.56824 28.9118 0 32.6971 0C40.104 0 46.1085 6.00446 46.1085 13.4113C46.1085 16.918 44.7626 20.1104 42.5593 22.5C44.7626 24.8897 46.1085 28.082 46.1085 31.5887C46.1085 38.9955 40.104 45 32.6971 45C28.9118 45 25.4927 43.4318 23.0542 40.9095C20.6157 43.4318 17.1967 45 13.4113 45C6.00446 45 0 38.9955 0 31.5887C0 28.082 1.34585 24.8897 3.5492 22.5C1.34585 20.1104 0 16.918 0 13.4113C0 6.00446 6.00446 0 13.4113 0Z" fill="#7B926C"/>
</svg>
